<svg width="378" height="210" viewBox="0 0 378 210" fill="none" xmlns="http://www.w3.org/2000/svg">
<path d="M7.15256e-07 210V-1.43051e-05H69.6C84.1 -1.43051e-05 97.65 2.74999 110.25 8.25C122.95 13.65 134.1 21.2 143.7 30.9C153.4 40.5 160.95 51.65 166.35 64.35C171.85 76.95 174.6 90.5 174.6 105C174.6 119.5 171.85 133.1 166.35 145.8C160.95 158.4 153.4 169.55 143.7 179.25C134.1 188.85 122.95 196.4 110.25 201.9C97.65 207.3 84.1 210 69.6 210H7.15256e-07ZM36.6 173.4H69.6C78.9 173.4 87.65 171.65 95.85 168.15C104.15 164.55 111.45 159.65 117.75 153.45C124.05 147.15 129 139.9 132.6 131.7C136.2 123.4 138 114.5 138 105C138 95.5 136.2 86.65 132.6 78.45C129 70.25 124.05 63 117.75 56.7C111.45 50.4 104.2 45.5 96 42C87.8 38.4 79 36.6 69.6 36.6H36.6V173.4ZM258.942 -1.43051e-05H301.092L377.442 210H338.592L325.092 172.8H235.092L221.592 210H182.742L258.942 -1.43051e-05ZM248.442 136.2H311.592L279.942 49.65L248.442 136.2Z" fill="#FDF184"/>
</svg>
