<svg width="63" height="100" viewBox="0 0 63 100" fill="none" xmlns="http://www.w3.org/2000/svg">
<g clip-path="url(#clip0_1_225)">
<path d="M15.7534 99.5C24.4457 99.5 31.5003 92.108 31.5003 83V66.5H15.7534C7.06118 66.5 0.0065918 73.892 0.0065918 83C0.0065918 92.108 7.06118 99.5 15.7534 99.5Z" fill="#0ACF83"/>
<path d="M0.0065918 50C0.0065918 40.892 7.06118 33.5 15.7534 33.5H31.5003V66.5H15.7534C7.06118 66.5 0.0065918 59.108 0.0065918 50Z" fill="#A259FF"/>
<path d="M0.0065918 17C0.0065918 7.892 7.06118 0.5 15.7534 0.5H31.5003V33.5H15.7534C7.06118 33.5 0.0065918 26.108 0.0065918 17Z" fill="#F24E1E"/>
<path d="M31.5 0.5H47.2469C55.9391 0.5 62.9937 7.892 62.9937 17C62.9937 26.108 55.9391 33.5 47.2469 33.5H31.5V0.5Z" fill="#FF7262"/>
<path d="M62.9937 50C62.9937 59.108 55.9391 66.5 47.2469 66.5C38.5546 66.5 31.5 59.108 31.5 50C31.5 40.892 38.5546 33.5 47.2469 33.5C55.9391 33.5 62.9937 40.892 62.9937 50Z" fill="#1ABCFE"/>
</g>
<defs>
<clipPath id="clip0_1_225">
<rect width="63" height="99" fill="white" transform="translate(0 0.5)"/>
</clipPath>
</defs>
</svg>
