<svg width="170" height="86" viewBox="0 0 170 86" fill="none" xmlns="http://www.w3.org/2000/svg">
<path d="M32.3256 20.4977C32.9194 18.939 33.7358 17.5041 34.948 16.3413C39.7971 11.616 47.8128 12.8035 51.1032 18.7411C53.5772 23.2438 56.1996 27.6475 58.7478 32.1007L71.5137 54.3171C75.0515 60.5269 71.2168 68.3694 64.1906 69.4332C59.8859 70.0765 55.8533 68.0973 53.6267 64.2379L42.3947 44.7428C42.3205 44.5943 42.2216 44.4706 42.1226 44.3469C41.7268 44.0253 41.5536 43.5553 41.3062 43.1347L33.0431 28.8103C32.0782 27.128 31.6329 25.2972 31.6824 23.3675C31.7566 22.3779 31.8803 21.3883 32.3256 20.4977Z" fill="#3C8BD9"/>
<path d="M32.3256 20.4976C32.1029 21.3882 31.905 22.2788 31.8555 23.219C31.7813 25.2971 32.3009 27.2268 33.3399 29.0328L41.4794 43.1099C41.7268 43.5304 41.9247 43.951 42.1721 44.3469L37.6942 52.041L31.435 62.8276C31.336 62.8276 31.3113 62.7781 31.2865 62.7039C31.2618 62.506 31.336 62.3328 31.3855 62.1349C32.3998 58.4239 31.5587 55.1335 29.0104 52.3131C27.4518 50.6061 25.4726 49.6412 23.1966 49.3196C20.2278 48.899 17.6053 49.6659 15.255 51.5214C14.8345 51.8431 14.5623 52.3131 14.0675 52.5605C13.9686 52.5605 13.9191 52.511 13.8943 52.4368L17.4322 46.2766L32.1524 20.7697C32.2019 20.6707 32.2761 20.5965 32.3256 20.4976Z" fill="#FABC04"/>
<path d="M13.9933 52.5111L15.4035 51.2494C21.4153 46.4993 30.4454 49.9381 31.7566 57.4591C32.0782 59.2651 31.905 60.9969 31.3607 62.7287C31.336 62.8771 31.3113 63.0008 31.2618 63.1493C31.0391 63.5451 30.8412 63.9657 30.5938 64.3615C28.3919 67.9983 25.151 69.8043 20.8957 69.5322C16.022 69.1858 12.1873 65.5243 11.5193 60.6753C11.1977 58.325 11.6678 56.1231 12.88 54.0945C13.1274 53.6491 13.4243 53.2533 13.6964 52.808C13.8201 52.709 13.7706 52.5111 13.9933 52.5111Z" fill="#34A852"/>
<path d="M13.9933 52.5111C13.8943 52.61 13.8943 52.7832 13.7212 52.8079C13.6964 52.6348 13.7954 52.5358 13.8943 52.4121L13.9933 52.5111Z" fill="#FABC04"/>
<path d="M31.2618 63.1491C31.1628 62.9759 31.2618 62.8522 31.3607 62.7285L31.4597 62.8275L31.2618 63.1491Z" fill="#E1C025"/>
<path d="M82.6992 18.4507C76.3474 18.4507 71.0636 23.5659 71.0636 29.8615C71.0636 36.1571 76.3474 41.216 82.6992 41.216C86.1281 41.216 88.6575 40.0918 90.6811 38.012C92.7609 35.9322 93.3792 33.0655 93.3792 30.7608C93.3792 30.0301 93.323 29.3556 93.2106 28.7934H82.6992V31.885H90.1752C89.9504 33.6276 89.3883 34.9204 88.4889 35.8198C87.4209 36.8878 85.6784 38.1244 82.6992 38.1244C78.0899 38.1244 74.4925 34.4145 74.4925 29.8615C74.4925 25.3084 78.0899 21.5985 82.6992 21.5985C85.1725 21.5985 87.0274 22.5541 88.3203 23.8469L90.5125 21.6547C88.6575 19.856 86.1843 18.4507 82.6992 18.4507ZM101.755 26.6012C97.7637 26.6012 94.4473 29.6928 94.4473 34.0211C94.4473 38.2931 97.7075 41.4409 101.755 41.4409C105.802 41.4409 109.062 38.2931 109.062 34.0211C109.062 29.749 105.746 26.6012 101.755 26.6012ZM101.755 38.5179C99.5624 38.5179 97.6513 36.663 97.6513 34.0211C97.6513 31.3792 99.5624 29.5242 101.755 29.5242C103.947 29.5242 105.858 31.3229 105.858 34.0211C105.858 36.663 103.947 38.5179 101.755 38.5179ZM117.606 26.6012C113.559 26.6012 110.299 29.6928 110.299 34.0211C110.299 38.2931 113.559 41.4409 117.606 41.4409C121.597 41.4409 124.913 38.2931 124.913 34.0211C124.913 29.749 121.653 26.6012 117.606 26.6012ZM117.606 38.5179C115.414 38.5179 113.503 36.663 113.503 34.0211C113.503 31.3792 115.414 29.5242 117.606 29.5242C119.798 29.5242 121.709 31.3229 121.709 34.0211C121.709 36.663 119.854 38.5179 117.606 38.5179ZM133.401 26.6012C129.748 26.6012 126.431 29.8052 126.431 33.9648C126.431 38.0682 129.748 41.2722 133.401 41.2722C135.144 41.2722 136.493 40.4853 137.224 39.5859H137.336V40.6539C137.336 43.4644 135.875 44.9821 133.457 44.9821C131.49 44.9821 130.31 43.5769 129.804 42.3964L126.993 43.5769C127.78 45.5442 129.916 47.9051 133.457 47.9051C137.224 47.9051 140.371 45.6567 140.371 40.2604V27.1071H137.336V28.2876H137.224C136.493 27.3882 135.144 26.6012 133.401 26.6012ZM133.682 38.4055C131.49 38.4055 129.635 36.5505 129.635 33.9648C129.635 31.3791 131.49 29.468 133.682 29.468C135.875 29.468 137.561 31.3791 137.561 33.9648C137.561 36.5505 135.875 38.4055 133.682 38.4055ZM142.732 19.3501H145.936V41.0474H142.732V19.3501ZM154.536 26.6012C150.714 26.6012 147.51 29.5804 147.51 34.0211C147.51 38.1806 150.658 41.4409 154.874 41.4409C158.303 41.4409 160.27 39.3611 161.057 38.1806L158.527 36.4943C157.684 37.731 156.504 38.5179 154.874 38.5179C153.187 38.5179 152.007 37.7872 151.276 36.2695L161.226 32.1661L160.888 31.3229C160.27 29.6928 158.359 26.6012 154.536 26.6012ZM150.714 33.7962C150.602 30.9295 152.963 29.468 154.593 29.468C155.886 29.468 157.01 30.0863 157.347 31.0419L150.714 33.7962Z" fill="#757575"/>
<path d="M92.2055 67.1137L99.6253 47.3838H102.492L109.912 67.1137H107.101L105.19 61.7737H96.9272L95.016 67.1137H92.2055ZM97.7704 59.4129H104.347L101.143 50.5316H101.031L97.7704 59.4129ZM112.498 65.4836C111.261 64.0784 110.643 62.392 110.643 60.3685C110.643 58.4011 111.261 56.7148 112.498 55.2533C113.79 53.848 115.252 53.1735 117.051 53.1735C118.062 53.1735 118.962 53.3983 119.749 53.7918C120.592 54.2415 121.21 54.7474 121.66 55.4781H121.772L121.66 53.6232V47.3838H124.189V67.1137H121.772V65.2588H121.66C121.21 65.9333 120.592 66.4954 119.749 66.9451C118.906 67.3948 118.006 67.5634 117.051 67.5634C115.252 67.5634 113.734 66.8889 112.498 65.4836ZM120.479 63.9097C121.323 63.0104 121.716 61.8299 121.716 60.3685C121.716 58.9632 121.323 57.7828 120.479 56.8834C119.693 55.984 118.681 55.5343 117.444 55.5343C116.207 55.5343 115.196 55.984 114.409 56.8834C113.566 57.7828 113.172 58.9632 113.172 60.3685C113.172 61.7737 113.566 62.9542 114.409 63.8535C115.252 64.7529 116.264 65.2026 117.444 65.2026C118.681 65.2588 119.693 64.8091 120.479 63.9097ZM135.881 66.3268C134.869 67.1138 133.577 67.5634 132.003 67.5634C130.654 67.5634 129.473 67.2262 128.405 66.4954C127.393 65.7647 126.663 64.8653 126.213 63.6849L128.461 62.7293C128.799 63.5163 129.248 64.1908 129.923 64.6405C130.541 65.0902 131.272 65.315 132.003 65.315C132.79 65.315 133.464 65.1464 134.026 64.8091C134.588 64.4718 134.813 64.0222 134.813 63.5725C134.813 62.7293 134.139 62.0548 132.846 61.6613L130.541 61.0992C127.899 60.4247 126.606 59.188 126.606 57.2769C126.606 56.0402 127.112 55.0847 128.124 54.2977C129.136 53.567 130.429 53.1735 131.946 53.1735C133.088 53.1658 134.212 53.4565 135.207 54.0167C136.162 54.5788 136.837 55.3657 137.23 56.3213L134.982 57.2769C134.701 56.7148 134.307 56.2651 133.745 55.9278C133.183 55.5906 132.509 55.4219 131.778 55.4219C131.103 55.4219 130.541 55.5906 129.979 55.9278C129.473 56.2651 129.192 56.6586 129.192 57.1644C129.192 57.9514 129.923 58.5135 131.384 58.7946L133.408 59.3005C136.106 59.975 137.399 61.324 137.399 63.3476C137.455 64.528 136.893 65.5399 135.881 66.3268Z" fill="#757575"/>
</svg>
