<svg width="598" height="167" viewBox="0 0 598 167" fill="none" xmlns="http://www.w3.org/2000/svg">
<g clip-path="url(#clip0_1_275)">
<path d="M13.7898 73.5262H24.2138L22.5995 79.7053C22.3529 80.5665 21.8916 81.2584 21.2159 81.7805C20.5392 82.3039 19.7551 82.5648 18.8637 82.5648H14.0205C12.9134 82.5648 11.9367 82.8873 11.0916 83.5332C10.2452 84.1787 9.65387 85.0546 9.3157 86.1617C9.10035 86.9916 9.07722 87.7756 9.24663 88.5134C9.41539 89.2511 9.71512 89.9048 10.1458 90.4729C10.5762 91.0423 11.1297 91.4956 11.8067 91.8337C12.4824 92.1725 13.2206 92.3406 14.0205 92.3406H16.9721C17.526 92.3406 17.9792 92.564 18.333 93.0093C18.6861 93.4555 18.7865 93.9545 18.6327 94.5079L16.7881 101.333H13.5595C11.3454 101.333 9.30788 100.849 7.4476 99.8803C5.58701 98.9119 4.04177 97.6289 2.81223 96.0296C1.58204 94.4317 0.743779 92.6103 0.298421 90.5657C-0.147589 88.5212 -0.0935073 86.4229 0.460014 84.2706L0.644412 83.5791C1.03423 82.1238 1.66559 80.7442 2.51218 79.4979C3.35793 78.253 4.35714 77.1924 5.51044 76.3162C6.66342 75.4401 7.94737 74.7561 9.36196 74.2642C10.7759 73.7727 12.2517 73.5262 13.7898 73.5262ZM19.0478 101.333L28.1341 67.3014C28.3798 66.4408 28.8411 65.7493 29.5181 65.2262C30.1938 64.7034 30.9776 64.4419 31.8703 64.4419H41.5105C43.7242 64.4419 45.7608 64.9262 47.6217 65.8946C49.4816 66.863 51.0269 68.1469 52.2571 69.7449C53.4866 71.3438 54.3327 73.1653 54.794 75.2095C55.2553 77.2543 55.1931 79.3526 54.6093 81.5039L54.4252 82.1958C54.0251 83.6713 53.4104 85.0318 52.5802 86.277C51.7495 87.5219 50.7581 88.5906 49.6051 89.4817C48.4518 90.3736 47.1675 91.0654 45.7536 91.5566C44.339 92.049 42.8628 92.2946 41.3258 92.2946H32.9773L34.6376 86.0692C34.8835 85.2393 35.3445 84.5634 36.0215 84.04C36.6976 83.5179 37.4814 83.2563 38.3738 83.2563H41.0492C42.1559 83.2563 43.1476 82.9182 44.0236 82.2417C44.9003 81.5658 45.4767 80.6897 45.7536 79.6132C45.9686 78.8451 45.9914 78.0914 45.823 77.3537C45.6536 76.6159 45.3539 75.9628 44.9232 75.3938C44.4925 74.8254 43.9389 74.3645 43.2629 74.0105C42.5862 73.6574 41.8483 73.4802 41.0492 73.4802H35.8827L29.1486 98.5201C28.902 99.35 28.4407 100.027 27.7647 100.549C27.0883 101.072 26.3191 101.333 25.4584 101.333H19.0478V101.333ZM76.5641 83.1641L76.7026 82.6567C76.7638 82.4111 76.7257 82.2039 76.5872 82.0345C76.4488 81.8658 76.2565 81.7805 76.0106 81.7805H61.0202C60.3745 81.7805 59.79 81.6424 59.2675 81.3655C58.7446 81.0887 58.3142 80.7278 57.9763 80.2819C57.6375 79.8369 57.4069 79.3216 57.2844 78.737C57.1609 78.1536 57.1762 77.554 57.33 76.9387L58.2526 73.434H78.5475C79.8083 73.434 80.9613 73.7108 82.0068 74.2642C83.0519 74.8173 83.9211 75.5401 84.6131 76.4316C85.3051 77.3234 85.7811 78.3451 86.0427 79.4979C86.3036 80.6509 86.2805 81.8427 85.9736 83.0719L82.3296 96.6293C81.9608 98.0129 81.2151 99.1353 80.0927 99.9956C78.9701 100.857 77.6864 101.287 76.2412 101.287L61.2509 101.241C59.9282 101.241 58.7139 100.957 57.6072 100.387C56.4999 99.8194 55.5928 99.0663 54.8856 98.1282C54.1783 97.1908 53.6866 96.1146 53.4097 94.9004C53.1331 93.6861 53.1641 92.4487 53.5019 91.1878L53.6866 90.496C53.9013 89.6361 54.2633 88.8362 54.7702 88.0984C55.2778 87.3603 55.8694 86.7304 56.5461 86.2076C57.229 85.6816 57.9921 85.269 58.8061 84.9855C59.6366 84.6937 60.5133 84.5474 61.4356 84.5474H74.0275L73.1048 88.0062C72.8585 88.8362 72.3972 89.5127 71.7209 90.0351C71.0445 90.5582 70.2757 90.8188 69.4149 90.8188H63.7875C63.2646 90.8188 62.9264 91.0807 62.773 91.6031C62.6808 91.9419 62.742 92.2415 62.9574 92.5021C63.1724 92.7637 63.449 92.894 63.7875 92.894H72.8738C73.2123 92.894 73.5042 92.8018 73.7505 92.6174C73.9962 92.4327 74.1496 92.1875 74.2119 91.8797L74.3041 91.5106L76.5641 83.1641ZM103.409 73.5262C105.652 73.5262 107.705 74.0105 109.566 74.9788C111.426 75.9472 112.971 77.2312 114.202 78.8295C115.431 80.4281 116.269 82.2577 116.715 84.3168C117.161 86.377 117.092 88.4831 116.508 90.6345L114.202 99.3041C114.047 99.919 113.717 100.411 113.21 100.78C112.703 101.149 112.141 101.333 111.526 101.333H106.545C105.961 101.333 105.499 101.111 105.161 100.664C104.822 100.219 104.73 99.7187 104.884 99.1656L107.652 88.6977C107.867 87.9297 107.89 87.176 107.721 86.4382C107.551 85.7002 107.252 85.0474 106.822 84.4784C106.391 83.9097 105.837 83.4488 105.161 83.0947C104.484 82.7417 103.746 82.5648 102.947 82.5648H97.7813L93.3069 99.3041C93.1531 99.919 92.8227 100.411 92.3155 100.78C91.8079 101.149 91.2312 101.333 90.5855 101.333H85.6507C85.0972 101.333 84.6434 101.111 84.2902 100.664C83.9371 100.219 83.8367 99.7187 83.9902 99.1656L90.8168 73.5262H103.409ZM130.575 82.3107C130.206 82.6036 129.944 82.9798 129.791 83.441L127.716 91.28C127.593 91.711 127.67 92.1103 127.946 92.479C128.223 92.848 128.592 93.0327 129.053 93.0327H148.149L146.673 98.5201C146.426 99.35 145.965 100.027 145.289 100.549C144.612 101.072 143.843 101.333 142.983 101.333H125.594C124.333 101.333 123.18 101.064 122.135 100.526C121.089 99.9884 120.22 99.266 119.528 98.3585C118.837 97.4524 118.359 96.4218 118.099 95.2691C117.838 94.116 117.876 92.9402 118.214 91.7412L121.028 81.2733C121.335 80.1366 121.811 79.091 122.457 78.1377C123.103 77.1853 123.865 76.3703 124.741 75.6938C125.617 75.0176 126.601 74.4877 127.692 74.1027C128.781 73.7189 129.928 73.5239 131.083 73.5262H143.398C144.659 73.5262 145.812 73.803 146.857 74.3564C147.902 74.9098 148.772 75.6326 149.463 76.5237C150.155 77.4155 150.623 78.4455 150.87 79.6132C151.116 80.7818 151.085 81.9648 150.778 83.1641L149.947 86.2998C149.579 87.6835 148.833 88.7981 147.711 89.6433C146.588 90.4889 145.319 90.9113 143.905 90.9113H129.976L130.898 87.4988C131.113 86.6688 131.559 85.993 132.236 85.4696C132.912 84.9474 133.696 84.6859 134.588 84.6859H140.215C140.738 84.6859 141.076 84.425 141.23 83.9019L141.414 83.2101C141.507 82.8723 141.445 82.5645 141.23 82.2879C141.014 82.0111 140.738 81.873 140.4 81.873H131.821C131.36 81.873 130.944 82.0192 130.575 82.3111V82.3107ZM148.102 101.333L157.373 66.5167C157.526 65.9024 157.857 65.4028 158.365 65.0184C158.872 64.6341 159.448 64.4419 160.094 64.4419H165.029C165.613 64.4419 166.082 64.6653 166.436 65.1106C166.789 65.5568 166.889 66.0558 166.736 66.6092L159.817 92.2946C159.479 93.648 158.933 94.8769 158.18 95.9837C157.426 97.0905 156.535 98.0357 155.505 98.8197C154.474 99.6037 153.329 100.219 152.068 100.664C150.807 101.111 149.485 101.333 148.102 101.333V101.333Z" fill="#FF6C2C"/>
</g>
<g clip-path="url(#clip1_1_275)">
<path d="M227.88 74.6964C227.846 75.6984 227.983 76.699 228.286 77.6604C228.598 78.4839 228.983 79.2812 229.439 80.0437C229.594 80.2719 229.682 80.5343 229.695 80.8047C229.672 81.0074 229.599 81.2022 229.48 81.3729C229.361 81.5436 229.2 81.6852 229.012 81.786L226.877 83.1879C226.601 83.37 226.275 83.4742 225.938 83.4883C225.74 83.4817 225.545 83.4374 225.365 83.3583C225.185 83.2791 225.024 83.1667 224.892 83.0277C224.396 82.5675 223.966 82.0492 223.611 81.4856C223.256 80.9249 222.893 80.2573 222.523 79.4829C221.273 80.9468 219.682 82.123 217.873 82.9214C216.064 83.7197 214.084 84.1192 212.085 84.0892C210.794 84.1555 209.502 83.9789 208.285 83.5696C207.068 83.1603 205.951 82.5266 204.999 81.7059C204.117 80.8642 203.43 79.8602 202.982 78.7572C202.534 77.6543 202.334 76.4762 202.395 75.2972C202.338 74.0158 202.589 72.7388 203.128 71.5603C203.667 70.3818 204.482 69.3319 205.511 68.488C207.983 66.6618 211.079 65.7433 214.22 65.9044C215.477 65.9079 216.732 65.9949 217.976 66.1648C219.286 66.3384 220.645 66.5787 222.053 66.8858V64.4425C222.261 62.5277 221.655 60.6134 220.367 59.1152C218.72 57.9266 216.65 57.3748 214.583 57.5731C213.295 57.5792 212.013 57.7271 210.762 58.0137C209.46 58.3058 208.183 58.6873 206.941 59.1553C206.54 59.3284 206.126 59.4756 205.703 59.5959H205.148C204.65 59.5959 204.401 59.2487 204.401 58.5545V56.9723C204.371 56.5704 204.459 56.1683 204.657 55.8107C204.925 55.5029 205.269 55.2621 205.66 55.1098C207.089 54.4677 208.584 53.9644 210.122 53.6077C211.927 53.1727 213.785 52.9573 215.65 52.9669C219.003 52.688 222.339 53.6593 224.935 55.6705C225.99 56.7783 226.795 58.0752 227.302 59.4831C227.808 60.8909 228.005 62.3804 227.88 63.8617V74.6964ZM213.473 79.7633C214.724 79.7462 215.965 79.5365 217.144 79.1424C218.444 78.72 219.601 77.9803 220.495 76.9995C221.046 76.4229 221.454 75.739 221.69 74.9968C221.936 74.0533 222.051 73.084 222.032 72.1129V70.711C220.955 70.4688 219.865 70.2816 218.766 70.1502C217.662 70.0177 216.55 69.9508 215.436 69.9499C213.567 69.8184 211.706 70.292 210.164 71.2918C209.607 71.7528 209.167 72.3247 208.875 72.9656C208.583 73.6065 208.448 74.3005 208.478 74.9968C208.428 75.6366 208.517 76.2793 208.741 76.8854C208.965 77.4916 209.318 78.0483 209.78 78.5216C210.278 78.946 210.861 79.2741 211.495 79.4872C212.128 79.7003 212.8 79.7941 213.473 79.7633ZM241.968 83.3682C241.487 83.4094 241.006 83.2965 240.602 83.0477C240.224 82.6907 239.965 82.2385 239.855 81.746L231.552 55.991C231.391 55.5567 231.283 55.1065 231.232 54.6492C231.213 54.5374 231.224 54.4233 231.261 54.3159C231.299 54.2085 231.363 54.1109 231.448 54.031C231.533 53.9511 231.637 53.8911 231.751 53.8558C231.866 53.8206 231.988 53.8111 232.107 53.828H235.586C236.074 53.7821 236.564 53.8953 236.973 54.1485C237.326 54.5164 237.569 54.9656 237.678 55.4502L243.633 77.4802L249.161 55.4502C249.246 54.9641 249.493 54.5156 249.866 54.1685C250.293 53.9208 250.795 53.8085 251.296 53.8481H254.156C254.657 53.8085 255.158 53.9208 255.586 54.1685C255.955 54.5237 256.194 54.9795 256.269 55.4703L261.84 77.7806L267.987 55.4703C268.101 54.9832 268.351 54.5336 268.713 54.1685C269.122 53.9153 269.612 53.8022 270.1 53.8481H273.387C273.507 53.8311 273.628 53.8406 273.743 53.8759C273.857 53.9111 273.961 53.9711 274.046 54.0511C274.131 54.131 274.195 54.2285 274.233 54.3359C274.271 54.4433 274.281 54.5575 274.263 54.6692C274.28 54.8424 274.28 55.0167 274.263 55.1899C274.194 55.4681 274.109 55.7422 274.006 56.011L265.469 81.766C265.359 82.2585 265.099 82.7107 264.722 83.0678C264.318 83.3165 263.836 83.4295 263.355 83.3882H260.239C259.734 83.4378 259.227 83.3171 258.809 83.0477C258.443 82.675 258.205 82.2074 258.126 81.7059L252.598 60.2568L247.133 81.6859C247.055 82.1874 246.817 82.655 246.45 83.0277C246.032 83.2971 245.525 83.4178 245.02 83.3682H241.968ZM287.56 84.2494C285.721 84.2522 283.888 84.0574 282.096 83.6686C280.671 83.3994 279.292 82.9479 277.998 82.3268C277.609 82.1721 277.277 81.9126 277.046 81.581C276.814 81.2494 276.692 80.8608 276.696 80.4642V78.7819C276.696 78.0877 276.966 77.7405 277.507 77.7405C277.733 77.7437 277.957 77.7844 278.169 77.8607L279.065 78.2012C280.318 78.7213 281.628 79.1108 282.971 79.3627C284.376 79.6335 285.806 79.7677 287.24 79.7633C289.045 79.8637 290.844 79.4817 292.427 78.6618C293.005 78.3397 293.48 77.878 293.803 77.325C294.126 76.7719 294.284 76.1478 294.263 75.5175C294.275 75.0899 294.196 74.6642 294.031 74.2654C293.866 73.8665 293.619 73.5024 293.302 73.1944C292.225 72.3472 290.954 71.7442 289.588 71.432L284.444 69.9099C282.278 69.3452 280.349 68.1709 278.916 66.5453C277.772 65.1651 277.148 63.4674 277.144 61.7188C277.114 60.4263 277.446 59.149 278.105 58.0137C278.743 56.9458 279.607 56.012 280.645 55.27C281.733 54.4938 282.962 53.9102 284.273 53.5477C285.723 53.1551 287.225 52.9595 288.734 52.9669C289.534 52.9662 290.332 53.013 291.125 53.1071C291.936 53.2005 292.705 53.3274 293.43 53.4876C294.156 53.6478 294.832 53.8214 295.458 54.0083C295.973 54.16 296.473 54.3543 296.952 54.5891C297.356 54.7936 297.712 55.0729 297.998 55.4102C298.224 55.7374 298.336 56.1223 298.318 56.5117V58.0938C298.318 58.7881 298.048 59.1353 297.507 59.1353C297.029 59.0851 296.565 58.9491 296.141 58.7347C293.987 57.8569 291.659 57.4199 289.311 57.453C287.678 57.3733 286.051 57.6979 284.594 58.3942C284.048 58.6934 283.601 59.1289 283.303 59.6523C283.005 60.1756 282.868 60.7662 282.907 61.3583C282.897 61.7988 282.984 62.2366 283.164 62.6435C283.344 63.0504 283.613 63.4176 283.953 63.7215C285.104 64.585 286.434 65.2126 287.859 65.564L292.897 66.9859C295.03 67.5061 296.943 68.6239 298.382 70.1903C299.511 71.5647 300.099 73.2625 300.047 74.9968C300.066 76.3369 299.744 77.662 299.108 78.8621C298.486 80.0085 297.605 81.0133 296.525 81.8061C295.348 82.6588 294.008 83.2911 292.576 83.6686C290.943 84.0875 289.254 84.2831 287.56 84.2494Z" fill="#252F3E"/>
<path fill-rule="evenodd" clip-rule="evenodd" d="M294.263 100.651C282.587 108.742 265.639 113.048 251.168 113.048C231.642 113.169 212.775 106.432 198.275 94.1626C197.187 93.2413 198.147 91.9796 199.47 92.6806C215.556 101.314 233.768 105.85 252.299 105.838C266.138 105.769 279.826 103.135 292.576 98.0879C294.54 97.3068 296.205 99.3096 294.263 100.651Z" fill="#FF9900"/>
<path fill-rule="evenodd" clip-rule="evenodd" d="M299.129 95.4443C297.635 93.6418 289.247 94.6032 285.49 95.0237C284.359 95.1439 284.167 94.2226 285.191 93.5417C291.872 89.1357 302.843 90.3974 304.103 91.8795C305.362 93.3615 303.761 103.675 297.507 108.602C296.547 109.363 295.629 108.963 296.056 107.961C297.464 104.637 300.623 97.2467 299.129 95.4443Z" fill="#FF9900"/>
<path d="M227.88 74.6964C227.846 75.6984 227.983 76.699 228.286 77.6604C228.598 78.4839 228.983 79.2812 229.439 80.0437C229.594 80.2719 229.682 80.5343 229.695 80.8047C229.672 81.0074 229.599 81.2022 229.48 81.3729C229.361 81.5436 229.2 81.6852 229.012 81.786L226.877 83.1879C226.601 83.37 226.275 83.4742 225.938 83.4883C225.74 83.4817 225.545 83.4374 225.365 83.3583C225.185 83.2791 225.024 83.1667 224.892 83.0277C224.396 82.5675 223.966 82.0492 223.611 81.4856C223.256 80.9249 222.893 80.2573 222.523 79.4829C221.273 80.9468 219.682 82.123 217.873 82.9214C216.064 83.7197 214.084 84.1192 212.085 84.0892C210.794 84.1555 209.502 83.9789 208.285 83.5696C207.068 83.1603 205.951 82.5266 204.999 81.7059C204.117 80.8642 203.43 79.8602 202.982 78.7572C202.534 77.6543 202.334 76.4762 202.395 75.2972C202.338 74.0158 202.589 72.7388 203.128 71.5603C203.667 70.3818 204.482 69.3319 205.511 68.488C207.983 66.6618 211.079 65.7433 214.22 65.9044C215.477 65.9079 216.732 65.9949 217.976 66.1648C219.286 66.3384 220.645 66.5787 222.053 66.8858V64.4425C222.261 62.5277 221.655 60.6134 220.367 59.1152C218.72 57.9266 216.65 57.3748 214.583 57.5731C213.295 57.5792 212.013 57.7271 210.762 58.0137C209.46 58.3058 208.183 58.6873 206.941 59.1553C206.54 59.3284 206.126 59.4756 205.703 59.5959H205.148C204.65 59.5959 204.401 59.2487 204.401 58.5545V56.9723C204.371 56.5704 204.459 56.1683 204.657 55.8107C204.925 55.5029 205.269 55.2621 205.66 55.1098C207.089 54.4677 208.584 53.9644 210.122 53.6077C211.927 53.1727 213.785 52.9573 215.65 52.9669C219.003 52.688 222.339 53.6593 224.935 55.6705C225.99 56.7783 226.795 58.0752 227.302 59.4831C227.808 60.8909 228.005 62.3804 227.88 63.8617V74.6964ZM213.473 79.7633C214.724 79.7462 215.965 79.5365 217.144 79.1424C218.444 78.72 219.601 77.9803 220.495 76.9995C221.046 76.4229 221.454 75.739 221.69 74.9968C221.936 74.0533 222.051 73.084 222.032 72.1129V70.711C220.955 70.4688 219.865 70.2816 218.766 70.1502C217.662 70.0177 216.55 69.9508 215.436 69.9499C213.567 69.8184 211.706 70.292 210.164 71.2918C209.607 71.7528 209.167 72.3247 208.875 72.9656C208.583 73.6065 208.448 74.3005 208.478 74.9968C208.428 75.6366 208.517 76.2793 208.741 76.8854C208.965 77.4916 209.318 78.0483 209.78 78.5216C210.278 78.946 210.861 79.2741 211.495 79.4872C212.128 79.7003 212.8 79.7941 213.473 79.7633ZM241.968 83.3682C241.487 83.4094 241.006 83.2965 240.602 83.0477C240.224 82.6907 239.965 82.2385 239.855 81.746L231.552 55.991C231.391 55.5567 231.283 55.1065 231.232 54.6492C231.213 54.5374 231.224 54.4233 231.261 54.3159C231.299 54.2085 231.363 54.1109 231.448 54.031C231.533 53.9511 231.637 53.8911 231.751 53.8558C231.866 53.8206 231.988 53.8111 232.107 53.828H235.586C236.074 53.7821 236.564 53.8953 236.973 54.1485C237.326 54.5164 237.569 54.9656 237.678 55.4502L243.633 77.4802L249.161 55.4502C249.246 54.9641 249.493 54.5156 249.866 54.1685C250.293 53.9208 250.795 53.8085 251.296 53.8481H254.156C254.657 53.8085 255.158 53.9208 255.586 54.1685C255.955 54.5237 256.194 54.9795 256.269 55.4703L261.84 77.7806L267.987 55.4703C268.101 54.9832 268.351 54.5336 268.713 54.1685C269.122 53.9153 269.612 53.8022 270.1 53.8481H273.387C273.507 53.8311 273.628 53.8406 273.743 53.8759C273.857 53.9111 273.961 53.9711 274.046 54.0511C274.131 54.131 274.195 54.2285 274.233 54.3359C274.271 54.4433 274.281 54.5575 274.263 54.6692C274.28 54.8424 274.28 55.0167 274.263 55.1899C274.194 55.4681 274.109 55.7422 274.006 56.011L265.469 81.766C265.359 82.2585 265.099 82.7107 264.722 83.0678C264.318 83.3165 263.836 83.4295 263.355 83.3882H260.239C259.734 83.4378 259.227 83.3171 258.809 83.0477C258.443 82.675 258.205 82.2074 258.126 81.7059L252.598 60.2568L247.133 81.6859C247.055 82.1874 246.817 82.655 246.45 83.0277C246.032 83.2971 245.525 83.4178 245.02 83.3682H241.968ZM287.56 84.2494C285.721 84.2522 283.888 84.0574 282.096 83.6686C280.671 83.3994 279.292 82.9479 277.998 82.3268C277.609 82.1721 277.277 81.9126 277.046 81.581C276.814 81.2494 276.692 80.8608 276.696 80.4642V78.7819C276.696 78.0877 276.966 77.7405 277.507 77.7405C277.733 77.7437 277.957 77.7844 278.169 77.8607L279.065 78.2012C280.318 78.7213 281.628 79.1108 282.971 79.3627C284.376 79.6335 285.806 79.7677 287.24 79.7633C289.045 79.8637 290.844 79.4817 292.427 78.6618C293.005 78.3397 293.48 77.878 293.803 77.325C294.126 76.7719 294.284 76.1478 294.263 75.5175C294.275 75.0899 294.196 74.6642 294.031 74.2654C293.866 73.8665 293.619 73.5024 293.302 73.1944C292.225 72.3472 290.954 71.7442 289.588 71.432L284.444 69.9099C282.278 69.3452 280.349 68.1709 278.916 66.5453C277.772 65.1651 277.148 63.4674 277.144 61.7188C277.114 60.4263 277.446 59.149 278.105 58.0137C278.743 56.9458 279.607 56.012 280.645 55.27C281.733 54.4938 282.962 53.9102 284.273 53.5477C285.723 53.1551 287.225 52.9595 288.734 52.9669C289.534 52.9662 290.332 53.013 291.125 53.1071C291.936 53.2005 292.705 53.3274 293.43 53.4876C294.156 53.6478 294.832 53.8214 295.458 54.0083C295.973 54.16 296.473 54.3543 296.952 54.5891C297.356 54.7936 297.712 55.0729 297.998 55.4102C298.224 55.7374 298.336 56.1223 298.318 56.5117V58.0938C298.318 58.7881 298.048 59.1353 297.507 59.1353C297.029 59.0851 296.565 58.9491 296.141 58.7347C293.987 57.8569 291.659 57.4199 289.311 57.453C287.678 57.3733 286.051 57.6979 284.594 58.3942C284.048 58.6934 283.601 59.1289 283.303 59.6523C283.005 60.1756 282.868 60.7662 282.907 61.3583C282.897 61.7988 282.984 62.2366 283.164 62.6435C283.344 63.0504 283.613 63.4176 283.953 63.7215C285.104 64.585 286.434 65.2126 287.859 65.564L292.897 66.9859C295.03 67.5061 296.943 68.6239 298.382 70.1903C299.511 71.5647 300.099 73.2625 300.047 74.9968C300.066 76.3369 299.744 77.662 299.108 78.8621C298.486 80.0085 297.605 81.0133 296.525 81.8061C295.348 82.6588 294.008 83.2911 292.576 83.6686C290.943 84.0875 289.254 84.2831 287.56 84.2494Z" fill="#252F3E"/>
<path fill-rule="evenodd" clip-rule="evenodd" d="M294.263 100.651C282.587 108.742 265.639 113.048 251.168 113.048C231.642 113.169 212.775 106.432 198.275 94.1626C197.187 93.2413 198.147 91.9796 199.47 92.6806C215.556 101.314 233.768 105.85 252.299 105.838C266.138 105.769 279.826 103.135 292.576 98.0879C294.54 97.3068 296.205 99.3096 294.263 100.651Z" fill="#FF9900"/>
<path fill-rule="evenodd" clip-rule="evenodd" d="M299.129 95.4443C297.635 93.6418 289.247 94.6032 285.49 95.0237C284.359 95.1439 284.167 94.2226 285.191 93.5417C291.872 89.1357 302.843 90.3974 304.103 91.8795C305.362 93.3615 303.761 103.675 297.507 108.602C296.547 109.363 295.629 108.963 296.056 107.961C297.464 104.637 300.623 97.2467 299.129 95.4443Z" fill="#FF9900"/>
</g>
<path d="M453.189 98.9517C449.648 98.7247 447.59 96.7105 447.045 92.9427C446.9 91.9401 446.9 91.9142 446.884 85.4072L446.87 79.109H450.003L450.015 85.201C450.027 90.6911 450.033 91.3357 450.086 91.721C450.299 93.289 450.723 94.3435 451.447 95.0996C452.025 95.7053 452.702 96.0594 453.64 96.2475C454.081 96.337 455.341 96.337 455.744 96.2475C456.649 96.0631 457.479 95.6134 458.128 94.9557C458.894 94.1904 459.461 93.1048 459.736 91.8779L459.827 91.4641L459.837 85.3216L459.848 79.1764H463.047V98.4939H459.881V96.9608C459.881 95.9206 459.87 95.4329 459.845 95.4407C459.773 95.5245 459.712 95.6174 459.665 95.717C459.088 96.7424 458.24 97.5898 457.215 98.167C456.021 98.822 454.824 99.0554 453.189 98.9517ZM489.116 98.9361C487.826 98.8289 486.579 98.422 485.475 97.7481C483.208 96.3473 481.867 94.0387 481.475 90.8636C481.339 89.7638 481.322 88.2878 481.436 87.354C481.689 85.2658 482.51 83.2166 483.68 81.7549C483.978 81.3787 484.659 80.7004 485.034 80.4008C486.045 79.5937 487.228 79.0297 488.492 78.7523C489.226 78.5928 490.518 78.5176 491.297 78.5889C493.256 78.7705 495.048 79.6913 496.267 81.1401C497.507 82.6122 498.187 84.6692 498.275 87.2022C498.289 87.7179 498.291 88.2338 498.281 88.7495L498.265 89.5744L491.409 89.5822L484.553 89.5913V89.8974C484.553 90.8273 484.778 91.887 485.17 92.7897C485.507 93.5666 486.09 94.4148 486.564 94.826C487.54 95.6684 488.756 96.1821 490.04 96.2942C490.525 96.3395 491.76 96.2916 492.311 96.2073C493.887 95.9647 495.385 95.3473 496.593 94.4433C496.735 94.3357 496.872 94.2358 496.896 94.2216C496.931 94.1995 496.94 94.4771 496.939 95.6482V97.1009L496.613 97.3019C495.215 98.1573 493.648 98.6998 492.019 98.892C491.524 98.953 489.707 98.9802 489.114 98.9361H489.116ZM495.082 86.6731C495.082 85.1154 494.424 83.3839 493.494 82.4929C492.831 81.8569 491.983 81.4465 491.073 81.3204C490.621 81.2503 489.671 81.2776 489.195 81.3722C488.222 81.5574 487.328 82.0321 486.63 82.7341C485.862 83.4948 485.281 84.4237 484.933 85.4474C484.803 85.8235 484.653 86.4396 484.605 86.782L484.583 86.9454H495.082V86.6731ZM402.081 98.4497L407.255 84.8741L412.414 71.3413H415.729L415.867 71.6915C416.287 72.7693 426.195 98.464 426.195 98.477C426.195 98.4861 425.401 98.4926 424.431 98.4926H422.667L421.24 94.695L419.811 90.8974H408.312L408.262 91.0271C408.235 91.0971 407.624 92.8065 406.906 94.8234L405.601 98.4926H403.833C402.435 98.4926 402.069 98.4848 402.081 98.4497ZM418.761 87.9999C418.761 87.9934 417.802 85.3916 416.627 82.2153C414.429 76.2777 414.306 75.9197 414.132 74.9664C414.051 74.5202 414.009 74.5073 413.961 74.9145C413.893 75.3564 413.793 75.7928 413.663 76.2206C413.605 76.4009 412.615 79.1129 411.463 82.249C410.759 84.1577 410.061 86.0686 409.369 87.9817C409.369 87.9973 411.483 88.0103 414.065 88.0103C416.649 88.0103 418.761 88.0051 418.761 87.9999ZM427.261 97.9997V97.5042L432.989 89.638L438.718 81.7717L433.53 81.7549L428.345 81.738L428.336 80.4228L428.327 79.109H443.33V79.9961L437.602 87.9052C434.45 92.2553 431.871 95.822 431.871 95.8298C431.871 95.8389 434.419 95.8467 437.532 95.8467H443.193V98.4926H427.261V97.9997ZM469.297 98.4705C469.284 98.4575 469.275 94.0957 469.275 88.7781V79.1077H472.406V81.1012C472.406 82.1984 472.419 83.0947 472.435 83.0947C472.452 83.0947 472.528 82.9157 472.605 82.6965C472.968 81.6741 473.567 80.752 474.354 80.0052C475.031 79.3488 475.896 78.9195 476.828 78.777C477.096 78.7342 477.323 78.7251 477.86 78.7394C478.535 78.7575 478.886 78.8068 479.296 78.9404L479.426 78.9819V82.2296L479.056 82.0454C478.415 81.7208 477.698 81.5772 476.982 81.6303C476.478 81.6563 476.147 81.7211 475.744 81.8716C474.925 82.1736 474.231 82.74 473.771 83.4812C473.069 84.6262 472.622 85.9091 472.461 87.2424C472.435 87.472 472.421 89.3462 472.414 93.0387L472.405 98.4951H470.863C470.015 98.4951 469.31 98.4848 469.297 98.4718V98.4705Z" fill="#0089D6"/>
<path d="M356.613 57.8157H372.436L356.01 106.483C355.842 106.983 355.52 107.418 355.092 107.726C354.663 108.034 354.148 108.199 353.62 108.199H341.306C340.906 108.199 340.512 108.104 340.156 107.921C339.801 107.739 339.493 107.474 339.26 107.149C339.026 106.825 338.874 106.449 338.815 106.053C338.755 105.658 338.791 105.254 338.919 104.875L354.223 59.5316C354.391 59.0314 354.713 58.5967 355.142 58.2887C355.57 57.9808 356.085 57.8151 356.613 57.8149V57.8157Z" fill="url(#paint0_linear_1_275)"/>
<path d="M379.605 90.459H354.515C354.282 90.4584 354.053 90.5282 353.86 90.6593C353.667 90.7903 353.518 90.9764 353.433 91.1935C353.347 91.4105 353.329 91.6483 353.38 91.8759C353.432 92.1035 353.55 92.3103 353.721 92.4693L369.844 107.518C370.314 107.956 370.932 108.2 371.574 108.199H385.782L379.605 90.459Z" fill="#0078D4"/>
<path d="M356.613 57.8154C356.079 57.8134 355.559 57.9821 355.128 58.2968C354.697 58.6116 354.378 59.0558 354.217 59.5648L338.938 104.833C338.802 105.214 338.759 105.621 338.813 106.022C338.868 106.422 339.018 106.803 339.251 107.133C339.484 107.464 339.793 107.733 340.152 107.918C340.511 108.104 340.909 108.2 341.313 108.199H353.945C354.415 108.115 354.855 107.907 355.219 107.598C355.583 107.288 355.859 106.887 356.017 106.437L359.064 97.4569L369.948 107.608C370.404 107.985 370.976 108.194 371.567 108.199H385.722L379.514 90.458L361.417 90.4622L372.493 57.8154H356.613Z" fill="url(#paint1_linear_1_275)"/>
<path d="M376.823 59.529C376.654 59.0295 376.333 58.5954 375.905 58.288C375.477 57.9806 374.963 57.8153 374.436 57.8154H356.801C357.329 57.8155 357.842 57.9809 358.271 58.2883C358.699 58.5957 359.02 59.0296 359.188 59.529L374.492 104.874C374.62 105.253 374.656 105.657 374.597 106.053C374.538 106.449 374.386 106.825 374.152 107.15C373.919 107.475 373.612 107.739 373.256 107.922C372.9 108.104 372.505 108.2 372.105 108.2H389.74C390.14 108.199 390.534 108.104 390.89 107.921C391.246 107.738 391.553 107.474 391.786 107.149C392.019 106.824 392.172 106.448 392.231 106.053C392.29 105.657 392.254 105.253 392.127 104.874L376.823 59.529Z" fill="url(#paint2_linear_1_275)"/>
<g clip-path="url(#clip2_1_275)">
<path d="M597.717 50.4121H532.564C532.553 50.4121 532.545 50.4207 532.545 50.4312V115.584C532.545 115.595 532.553 115.603 532.564 115.603H597.717C597.727 115.603 597.736 115.595 597.736 115.584V50.4312C597.736 50.4207 597.727 50.4121 597.717 50.4121Z" fill="#171515"/>
<path d="M547.696 82.8805C549.861 86.7003 553.935 88.9922 560.684 89.6288C559.665 90.3927 558.519 91.7933 558.392 93.4486C557.119 94.2125 554.699 94.4672 552.789 93.8306C550.116 92.9393 549.097 87.7189 545.023 88.4829C544.131 88.6102 544.259 89.2468 545.023 89.7561C546.296 90.5201 547.696 91.7933 548.333 93.5759C549.861 97.523 553.044 98.5416 558.137 97.7777V103.507C558.137 105.29 555.591 105.799 555.591 106.691C555.591 107.073 556.482 107.073 557.119 107.073C558.392 107.073 561.193 105.927 561.193 104.144C561.193 102.616 561.193 97.523 561.32 96.6317C561.32 94.7219 562.339 94.0852 562.339 94.0852C562.339 94.0852 562.466 104.526 562.084 105.799C561.575 107.454 560.811 107.2 560.811 107.964C560.811 109.11 564.122 108.218 565.267 105.799C566.159 103.889 565.777 93.7032 565.649 93.8306H566.541C566.541 93.8306 566.541 98.5416 566.668 100.579C566.668 102.743 566.541 105.545 567.814 106.945C568.705 107.836 571.506 109.364 571.506 107.964C571.506 107.2 569.979 106.436 569.979 104.271V94.2125C571.252 94.2125 570.997 97.523 570.997 97.523L571.124 103.635C571.124 103.635 570.87 105.927 573.544 106.818C574.562 107.2 576.6 107.2 576.727 106.691C576.854 106.181 574.18 105.29 574.18 103.507V97.2684C574.18 92.6846 573.544 91.0294 571.379 89.6288C578.127 88.9922 582.329 87.3369 584.366 82.8805C585.64 80.334 585.894 77.2781 585.894 74.9862C585.894 68.6199 582.839 66.4554 582.202 65.3094C583.093 60.471 582.075 58.3065 581.565 57.6698C579.783 57.0332 575.454 59.1978 573.162 60.7257C569.342 59.5797 561.193 59.7071 558.137 60.9803C552.535 57.0332 549.606 57.6698 549.606 57.6698C549.606 57.6698 547.696 61.1077 549.097 66.0734C547.187 68.3653 545.914 70.0205 545.787 74.3496C545.787 77.7874 546.168 79.952 547.696 82.8805Z" fill="white"/>
</g>
<defs>
<linearGradient id="paint0_linear_1_275" x1="362.38" y1="61.5493" x2="345.948" y2="110.094" gradientUnits="userSpaceOnUse">
<stop stop-color="#114A8B"/>
<stop offset="1" stop-color="#0669BC"/>
</linearGradient>
<linearGradient id="paint1_linear_1_275" x1="367.513" y1="84.1723" x2="363.712" y2="85.4577" gradientUnits="userSpaceOnUse">
<stop stop-opacity="0.3"/>
<stop offset="0.071" stop-opacity="0.2"/>
<stop offset="0.321" stop-opacity="0.1"/>
<stop offset="0.623" stop-opacity="0.05"/>
<stop offset="1" stop-opacity="0"/>
</linearGradient>
<linearGradient id="paint2_linear_1_275" x1="365.423" y1="60.133" x2="383.461" y2="108.189" gradientUnits="userSpaceOnUse">
<stop stop-color="#3CCBF4"/>
<stop offset="1" stop-color="#2892DF"/>
</linearGradient>
<clipPath id="clip0_1_275">
<rect width="166.806" height="37.1557" fill="white" transform="translate(0 64.4297)"/>
</clipPath>
<clipPath id="clip1_1_275">
<rect width="106.724" height="60.0816" fill="white" transform="translate(197.806 52.9668)"/>
</clipPath>
<clipPath id="clip2_1_275">
<rect width="65.1912" height="65.1912" fill="white" transform="translate(532.545 50.4121)"/>
</clipPath>
</defs>
</svg>
