<svg width="221" height="96" viewBox="0 0 221 96" fill="none" xmlns="http://www.w3.org/2000/svg">
<path d="M4.0005 5.20068H92.001V90.8012H4.0005V5.20068Z" fill="#261300"/>
<path d="M0 1.2002V94.8002H96V1.2002H0ZM4.0005 5.2007H92.001V90.8012H4.0005V5.2007ZM33.3195 54.1997L30.159 66.1997C30.0795 66.5192 29.9595 66.6002 29.559 66.6002H23.679C23.2785 66.6002 23.199 66.4802 23.2785 66.0002L34.638 26.2397C34.8375 25.5197 34.9575 24.8792 35.0385 22.9202C35.0385 22.6397 35.1585 22.5197 35.358 22.5197H43.758C44.0385 22.5197 44.1585 22.5992 44.238 22.9202L56.958 66.0797C57.0375 66.3992 56.958 66.6002 56.6385 66.6002H49.998C49.6785 66.6002 49.4775 66.5207 49.398 66.2402L46.0785 54.1997H33.3195ZM44.439 47.7197L39.6795 28.9202H39.6C38.76 33.6002 36.6405 41.5202 34.9605 47.7197H44.439ZM62.439 25.4792C62.439 22.9187 64.239 21.3992 66.519 21.3992C68.9595 21.3992 70.599 23.0387 70.599 25.4792C70.599 28.1192 68.8785 29.5592 66.4395 29.5592C64.119 29.5592 62.439 28.1192 62.439 25.4792ZM62.919 34.5587C62.919 34.2392 63.039 34.0787 63.399 34.0787H69.6795C69.999 34.0787 70.1595 34.1987 70.1595 34.5587V66.1187C70.1595 66.4382 70.08 66.5987 69.6795 66.5987H63.48C63.0795 66.5987 62.9595 66.3992 62.9595 66.0782V34.5602L62.919 34.5587Z" fill="#FF7C00"/>
<g clip-path="url(#clip0_1_232)">
<path d="M129.958 5.07715H217.042V89.7857H129.958V5.07715Z" fill="#001D26"/>
<path d="M130 5.22164H218V93.0165H130V5.22164ZM126 97.1191H222V1.11914H126V97.1191ZM190.72 40.5037C187.56 40.5037 186.48 42.1447 186.48 43.4985C186.48 44.9754 187.2 46.001 191.44 48.2575C197.72 51.3755 199.68 54.3703 199.68 58.7601C199.68 65.3241 194.8 68.8524 188.2 68.8524C184.72 68.8524 181.72 68.1138 180 67.0883C179.72 66.9653 179.68 66.7602 179.68 66.4318V60.4011C179.68 59.9909 179.88 59.8676 180.16 60.0729C182.68 61.7551 185.56 62.4934 188.2 62.4934C191.36 62.4934 192.68 61.1396 192.68 59.2934C192.68 57.8165 191.76 56.5037 187.72 54.3703C182.04 51.5806 179.68 48.7499 179.68 44.0319C179.68 38.7395 183.72 34.3499 190.72 34.3499C194.16 34.3499 196.56 34.8833 197.88 35.4986C198.2 35.7037 198.28 36.0318 198.28 36.319V41.9394C198.28 42.2676 198.08 42.4728 197.68 42.3496C195.92 41.2012 193.32 40.5037 190.72 40.5037ZM156.32 45.3857C157.24 45.4678 157.96 45.4678 159.56 45.4678C164.24 45.4678 168.64 43.7858 168.64 37.2628C168.64 32.0526 165.48 29.4268 160.16 29.4268C158.56 29.4268 157.04 29.5088 156.32 29.5498V45.3857ZM149.2 23.6011C149.2 23.314 149.76 23.1087 150.08 23.1087C152.64 22.9856 156.44 22.9036 160.4 22.9036C171.48 22.9036 175.8 29.1395 175.8 37.0985C175.8 47.5189 168.44 51.9908 159.4 51.9908C157.88 51.9908 157.36 51.9088 156.28 51.9088V67.6626C156.28 67.9908 156.16 68.1548 155.8 68.1548H149.68C149.36 68.1548 149.2 68.0318 149.2 67.6626V23.6011H149.2Z" fill="#31C5F0"/>
</g>
<defs>
<clipPath id="clip0_1_232">
<rect width="95" height="95" fill="white" transform="translate(126 1)"/>
</clipPath>
</defs>
</svg>
