<svg width="107" height="108" viewBox="0 0 107 108" fill="none" xmlns="http://www.w3.org/2000/svg">
<g clip-path="url(#clip0_1_269)">
<path d="M106.969 0.5H0.0313477C0.0140348 0.5 0 0.514035 0 0.531348V107.469C0 107.486 0.0140348 107.5 0.0313477 107.5H106.969C106.986 107.5 107 107.486 107 107.469V0.531348C107 0.514035 106.986 0.5 106.969 0.5Z" fill="#21759B"/>
<path d="M53.4961 85.1418C72.2388 85.1418 87.4327 70.8417 87.4327 53.2015C87.4327 35.5614 72.2388 21.2612 53.4961 21.2612C34.7535 21.2612 19.5596 35.5614 19.5596 53.2015C19.5596 70.8417 34.7535 85.1418 53.4961 85.1418Z" stroke="white" stroke-width="5"/>
<path d="M44.6927 85.1416L54.2929 55.867L64.236 84.2491L69.2075 81.393L78.8077 52.4754C80.522 47.8343 81.0363 44.0857 81.0363 40.8726C81.2078 34.982 78.8077 29.8054 74.6933 29.2699C70.9218 28.9128 68.8646 32.6614 69.0361 34.982C69.3789 40.3371 74.5219 43.3717 74.5219 50.6903C74.5219 56.0455 71.2647 64.4352 69.0361 72.4678L57.893 37.838C59.7787 37.6595 61.4931 37.6595 61.4931 37.6595C63.2074 37.481 63.0359 34.8035 61.3216 34.982C55.6644 35.5175 50.5214 35.339 44.8641 34.982C43.1498 34.8035 42.9784 37.481 44.6927 37.6595C44.6927 37.6595 46.2356 37.6595 47.9499 37.838L52.75 51.5829L45.8927 72.8248L34.7496 37.838C36.6354 37.6595 38.1783 37.6595 38.1783 37.6595C39.8926 37.481 39.7212 34.8035 38.0068 34.982C32.8639 35.339 27.8923 35.696 26.6923 34.8035L25.1494 39.2661L40.2355 82.6426L44.6927 85.1416Z" fill="white"/>
</g>
<defs>
<clipPath id="clip0_1_269">
<rect width="107" height="107" fill="white" transform="translate(0 0.5)"/>
</clipPath>
</defs>
</svg>
