<svg width="250" height="146" viewBox="0 0 250 146" fill="none" xmlns="http://www.w3.org/2000/svg">
<path d="M42.5444 117.121L35.77 41.0845H110.23L103.456 117.092L72.9416 125.56L42.5444 117.121Z" fill="#E44D26"/>
<path d="M73 119.107L97.6448 112.274L103.456 47.3037H73V119.107Z" fill="#F16529"/>
<path d="M73 75.5112H60.6484L59.8016 65.9627H73V56.6479H72.9708H49.6108L49.8444 59.1299L52.122 84.8259H73V75.5112Z" fill="#EBEBEB"/>
<path d="M73 99.718L72.9708 99.7472L62.5756 96.9148L61.904 89.498H56.8524H52.56L53.8448 104.127L72.9708 109.442L73 109.412V99.718Z" fill="#EBEBEB"/>
<path d="M42.6904 20.4399H47.4208V25.1119H51.7424V20.4399H56.4728V34.6019H51.7424V29.8423H47.4208V34.6019H42.6904V20.4399Z" fill="black"/>
<path d="M62.7216 25.1411H58.546V20.4399H71.6276V25.1411H67.452V34.6019H62.7216V25.1411Z" fill="black"/>
<path d="M73.73 20.4399H78.6648L81.7016 25.4331L84.7384 20.4399H89.6732V34.6019H84.972V27.5939L81.7016 32.6455H81.614L78.3436 27.5939V34.6311H73.7008V20.4399H73.73Z" fill="black"/>
<path d="M92.0384 20.4399H96.7688V29.9299H103.426V34.6019H92.0384V20.4399Z" fill="black"/>
<path d="M72.9708 75.5112V84.826H84.4464L83.366 96.9148L72.9708 99.718V109.442L92.0676 104.127L92.2136 102.55L94.4036 78.0224L94.6372 75.5112H92.126H72.9708Z" fill="white"/>
<path d="M72.9708 56.6479V62.4296V65.9335V65.9627H95.4548H95.484L95.6884 63.8603L96.0972 59.1299L96.3308 56.6479H72.9708Z" fill="white"/>
<g clip-path="url(#clip0_1_242)">
<path d="M219.36 118.624L188 127.068L156.639 118.624L149.402 40.2236H226.597L219.36 118.624Z" fill="#2062AF"/>
<path d="M187.999 46.5737V120.333L188.07 120.352L213.449 113.518L219.306 46.5737H187.999Z" fill="#3C9CD7"/>
<path d="M170.201 28.7046V24.0382H177.01V18.9321H165.095V33.3641H177.01V28.7046H170.201ZM189.257 24.0382H194.017V18.9321H182.101V24.0382C183.695 25.6324 184.527 26.3954 186.832 28.7009C185.484 28.7009 182.101 28.7058 182.101 28.7055V33.3641H194.017V28.7046L189.257 24.0382ZM206.145 24.0382H210.905V18.9321H198.989V24.0382C200.583 25.6324 201.415 26.3954 203.72 28.7009C202.373 28.7009 198.989 28.7058 198.989 28.7055V33.3641H210.905V28.7046L206.145 24.0382Z" fill="black"/>
<path d="M187.971 66.1769L165.526 75.5248L166.27 84.78L187.971 75.5014L211.056 65.6317L212.013 56.1641L187.971 66.1769Z" fill="white"/>
<path d="M165.526 75.5247L166.27 84.7798L187.971 75.5012V66.1768L165.526 75.5247Z" fill="url(#paint0_linear_1_242)"/>
<path d="M212.013 56.1641L187.971 66.1767V75.5011L211.056 65.6315L212.013 56.1641Z" fill="url(#paint1_linear_1_242)"/>
<path d="M165.56 75.5249L166.305 84.7801L199.602 84.8862L198.858 97.2262L187.901 100.311L177.368 97.6515L176.73 89.9921H166.943L168.22 104.779L188.007 110.63L207.687 104.885L210.241 75.5249H165.56Z" fill="url(#paint2_linear_1_242)"/>
<path opacity="0.05" d="M187.971 75.5249H165.526L166.27 84.7801L187.971 84.8494V75.5249ZM187.971 100.281L187.865 100.311L177.334 97.6517L176.696 89.9923H166.909L168.185 104.779L187.971 110.63V100.281Z" fill="black"/>
<path d="M163.505 56.1641H212.013L211.056 65.6317H164.675L163.505 56.1641Z" fill="url(#paint3_linear_1_242)"/>
<path opacity="0.05" d="M187.971 56.1641H163.505L164.675 65.6317H187.971V56.1641Z" fill="black"/>
</g>
<defs>
<linearGradient id="paint0_linear_1_242" x1="176.749" y1="84.7801" x2="176.749" y2="66.177" gradientUnits="userSpaceOnUse">
<stop offset="0.387" stop-color="#D1D3D4" stop-opacity="0"/>
<stop offset="1" stop-color="#D1D3D4"/>
</linearGradient>
<linearGradient id="paint1_linear_1_242" x1="199.992" y1="75.5014" x2="199.992" y2="56.1643" gradientUnits="userSpaceOnUse">
<stop offset="0.387" stop-color="#D1D3D4" stop-opacity="0"/>
<stop offset="1" stop-color="#D1D3D4"/>
</linearGradient>
<linearGradient id="paint2_linear_1_242" x1="165.56" y1="93.0774" x2="210.24" y2="93.0774" gradientUnits="userSpaceOnUse">
<stop stop-color="#E8E7E5"/>
<stop offset="1" stop-color="white"/>
</linearGradient>
<linearGradient id="paint3_linear_1_242" x1="163.505" y1="60.8979" x2="212.013" y2="60.8979" gradientUnits="userSpaceOnUse">
<stop stop-color="#E8E7E5"/>
<stop offset="1" stop-color="white"/>
</linearGradient>
<clipPath id="clip0_1_242">
<rect width="124" height="124" fill="white" transform="translate(126 11)"/>
</clipPath>
</defs>
</svg>
